<?xml version="1.0" encoding="utf-8"?>
<!-- Generator: Adobe Illustrator 21.0.0, SVG Export Plug-In . SVG Version: 6.00 Build 0)  -->
<svg version="1.1" id="Layer_1" xmlns="http://www.w3.org/2000/svg" xmlns:xlink="http://www.w3.org/1999/xlink" x="0px" y="0px"
	 viewBox="0 0 472 54" style="enable-background:new 0 0 472 54;" xml:space="preserve">
<style type="text/css">
	.st0{fill:#231F20;}
	.st1{fill:#FFFFFF;}
	.st2{fill:none;}
</style>
<g>
	<g>
		<path class="st0" d="M6.8,19.1c0,1-0.1,8.5,4.6,16.2c4.2,7,10.5,10.1,13.2,11c2.7-1,9-4,13.2-11c4.7-7.7,4.6-15.2,4.6-16.2V0.9
			l-35.5,0V19.1z"/>
		<g>
			<path class="st0" d="M44.4,27.7l-0.2,0.6c-0.2,0.7-0.4,1.4-0.7,2L42,28.9l-0.2,0.6c-0.8,2.4-1.9,4.7-3.2,6.7
				c-3.3,5.3-8,9.2-13.6,11.3c0,0-0.4,0.1-0.6,0.2c-0.2-0.1-0.6-0.2-0.6-0.2c-5.5-2-10.2-5.9-13.6-11.3c-1.3-2-2.4-4.3-3.2-6.7
				L7,28.9l-0.4,0.4l-1.1,1c-0.2-0.7-0.5-1.3-0.7-2l-0.2-0.6l-0.4,0.4l-3.8,3.4l0.1,0.2c0.9,2.9,2.4,5.9,3.5,7.9l0.2,0.4l1.6-1.4
				c0.1,0.1,0.1,0.2,0.2,0.3c4,6.3,9.6,11,16.2,13.4l2.3,0.9l2.4-0.9C33.5,50,39.1,45.3,43.1,39c0.1-0.1,0.1-0.2,0.2-0.3l1.6,1.4
				l0.2-0.4c1.1-2,2.6-4.9,3.5-7.9l0.1-0.2L44.4,27.7z"/>
		</g>
		<g>
			<path class="st1" d="M39.3,8.9c0,0.3-0.1,0.5-0.2,0.7C39.1,9.8,39,9.9,38.9,10c-0.2,0.1-0.3,0.2-0.4,0.3c0-0.1,0-0.1,0-0.2
				c0-0.3,0.1-0.5,0.2-0.7c0.1-0.3,0.4-0.5,0.7-0.7C39.3,8.8,39.3,8.9,39.3,8.9z"/>
			<path class="st1" d="M36.4,13.7L36.4,13.7c0.3,0,0.6,0,0.9,0.2c-0.2,0.2-0.5,0.4-0.8,0.4c-0.3,0-0.6,0-0.9-0.2
				C35.8,13.9,36.1,13.8,36.4,13.7z"/>
			<path class="st1" d="M34.9,14.2C34.9,14.2,34.9,14.2,34.9,14.2c0-0.4,0.1-0.6,0.2-0.9l0,0c0.2-0.3,0.4-0.4,0.7-0.6
				c0,0,0,0.1,0,0.1c0,0.3-0.1,0.6-0.2,0.8C35.4,13.9,35.2,14.1,34.9,14.2z"/>
			<path class="st1" d="M36,12.6c0.1-0.2,0.3-0.3,0.4-0.5c0,0.1,0.1,0.3,0.1,0.4c0,0.2,0,0.3-0.1,0.5c-0.1,0.2-0.2,0.4-0.4,0.6
				c-0.1,0-0.1,0-0.2,0.1c0,0,0,0,0,0C36,13.2,36.1,12.9,36,12.6z"/>
			<path class="st1" d="M36.7,11.8c0.1-0.2,0.2-0.4,0.3-0.6c0.1,0.2,0.2,0.5,0.2,0.7c0,0,0,0.1,0,0.1c0,0.2-0.1,0.4-0.2,0.6
				c-0.1,0-0.1,0.1-0.2,0.1c0,0,0,0,0,0C36.9,12.5,36.8,12.1,36.7,11.8z"/>
			<path class="st1" d="M37.2,10.9c0-0.2,0.1-0.4,0.2-0.6c0.2,0.2,0.4,0.5,0.4,0.8c0,0.1,0,0.1,0,0.2c0,0.2,0,0.3-0.1,0.5
				c-0.1,0.1-0.1,0.1-0.1,0.2c0,0,0,0,0,0C37.5,11.5,37.4,11.2,37.2,10.9z"/>
			<path class="st1" d="M37.4,9.9c0-0.1,0-0.2,0-0.3c0-0.1,0-0.2,0.1-0.3c0.3,0.2,0.5,0.4,0.6,0.7c0.1,0.2,0.1,0.4,0.1,0.6
				c0,0,0,0.1,0,0.1c0,0.1-0.1,0.1-0.1,0.2c0,0,0,0,0,0C37.9,10.5,37.7,10.2,37.4,9.9z"/>
			<path class="st1" d="M37.4,8.9c-0.1-0.2-0.1-0.4-0.1-0.7c0.3,0.1,0.6,0.3,0.7,0.5c0.1,0.2,0.2,0.4,0.2,0.6c0,0.1,0,0.1-0.1,0.2
				c0,0,0,0,0,0C38,9.3,37.7,9.1,37.4,8.9z"/>
			<path class="st1" d="M38.1,8.5C38.1,8.5,38.1,8.5,38.1,8.5c-0.3-0.2-0.6-0.4-0.9-0.5c-0.1-0.2-0.2-0.4-0.3-0.6
				c0.3,0,0.6,0.1,0.8,0.3C37.9,7.8,38,8,38.1,8.2C38.1,8.3,38.1,8.4,38.1,8.5z"/>
			<path class="st1" d="M37.7,7.3c-0.3-0.2-0.6-0.3-1-0.3c-0.2-0.1-0.3-0.3-0.4-0.5c0.3,0,0.6,0,0.9,0.2c0.2,0.1,0.3,0.2,0.5,0.4
				C37.7,7.2,37.7,7.3,37.7,7.3C37.7,7.3,37.7,7.3,37.7,7.3z"/>
			<path class="st1" d="M37.1,13.5c-0.2,0-0.3-0.1-0.5-0.1c0.2-0.3,0.4-0.5,0.7-0.6l0,0c0.3-0.1,0.6-0.1,0.9-0.1
				c-0.2,0.3-0.4,0.5-0.7,0.6C37.4,13.5,37.3,13.5,37.1,13.5z"/>
			<path class="st1" d="M38,12.5c-0.2,0-0.3,0-0.5,0c0.1-0.3,0.3-0.5,0.5-0.7v0c0.3-0.2,0.6-0.3,0.9-0.3c-0.1,0.3-0.3,0.6-0.5,0.8
				C38.2,12.4,38.1,12.4,38,12.5z"/>
			<path class="st1" d="M38.9,11c-0.1,0.1-0.2,0.2-0.3,0.3c-0.2,0-0.3,0.1-0.5,0.1c0-0.3,0.1-0.6,0.3-0.8c0.2-0.2,0.5-0.4,0.8-0.5
				C39.2,10.5,39.1,10.8,38.9,11z"/>
			<path class="st1" d="M39.1,7.9c0,0.1,0,0.2,0,0.4c0,0.1-0.1,0.3-0.2,0.4c-0.1,0.1-0.2,0.2-0.3,0.3c-0.1-0.2-0.1-0.4-0.1-0.5
				c0-0.1,0-0.2,0-0.4c0.1-0.3,0.3-0.6,0.5-0.8C39,7.5,39.1,7.7,39.1,7.9z"/>
			<path class="st1" d="M38,6.9c0-0.3,0.1-0.6,0.3-0.9c0.2,0.3,0.3,0.6,0.3,0.9c0,0,0,0,0,0c0,0.1,0,0.3-0.1,0.4
				c-0.1,0.1-0.2,0.3-0.3,0.4C38.1,7.5,38,7.2,38,6.9C38,6.9,38,6.9,38,6.9z"/>
			<path class="st1" d="M37.3,4.9c0.2,0.2,0.4,0.5,0.5,0.8c0,0.1,0,0.2,0,0.3c0,0,0,0.1,0,0.1c-0.1,0.2-0.1,0.3-0.2,0.5
				c-0.2-0.2-0.4-0.5-0.5-0.8c0-0.1,0-0.2,0-0.3C37.2,5.3,37.3,5.1,37.3,4.9z"/>
			<path class="st1" d="M37.2,6.3C37.2,6.3,37.1,6.3,37.2,6.3c-0.4-0.1-0.7-0.1-1.1,0c-0.2-0.1-0.4-0.2-0.5-0.4
				c0.3-0.1,0.6-0.1,0.9-0.1c0.2,0.1,0.4,0.2,0.6,0.3C37.1,6.2,37.1,6.3,37.2,6.3z"/>
			<path class="st1" d="M36.2,4.1c0.3,0.2,0.5,0.4,0.7,0.7C36.9,4.9,37,5,37,5.1c0,0.2-0.1,0.3,0,0.5c-0.3-0.2-0.5-0.4-0.6-0.6
				c-0.1-0.2-0.2-0.4-0.2-0.7C36.2,4.2,36.2,4.2,36.2,4.1z"/>
			<path class="st1" d="M35.9,4.7C35.9,4.7,35.9,4.7,35.9,4.7C36,4.9,36,5,36.1,5.1v0c0.1,0.1,0.1,0.2,0.2,0.3
				c-0.3,0-0.6-0.1-0.8-0.3C35.3,5,35.1,4.7,35,4.4C35.3,4.4,35.6,4.5,35.9,4.7z"/>
			<path class="st1" d="M31.6,11.5c0.2,0,0.3,0.2,0.3,0.4c0,0.1,0,0.1,0,0.1c0,0.1-0.1,0.1,0.1,0.1h0.5v-6c0-0.8,0.1-1.8,0.5-2.8
				L33.2,3l0.1,0.3c0.5,1,0.5,1.9,0.5,2.8v6h0.5c0.1,0,0.1-0.1,0.1-0.1c0,0,0-0.1,0-0.1c0-0.2,0.2-0.4,0.4-0.4
				c0.2,0,0.4,0.2,0.4,0.4c0,0.2-0.2,0.5-0.6,0.5h-0.8c0.1,0.3,0.2,0.7,0.2,1.1c0,0.6-0.1,1.1-0.3,1.4c0.6-0.1,1-0.2,1.4-0.5l0,0
				l0.1,0.3l0,0c-0.4,0.2-0.7,0.3-1.2,0.4c0,0-0.3,0.1-0.5,0.1c0.1,0.1,0.1,0.1,0.1,0.2c0,0.2-0.1,0.3-0.3,0.3
				c-0.2,0-0.3-0.1-0.3-0.3c0-0.1,0-0.2,0.1-0.2c-0.2,0-0.6-0.1-0.6-0.1c-0.4-0.1-0.8-0.2-1.2-0.4l0,0l0.1-0.3l0,0
				c0.4,0.2,0.9,0.4,1.5,0.5c-0.2-0.3-0.3-0.8-0.3-1.4c0-0.4,0.1-0.8,0.2-1.1h-0.8c-0.4,0-0.6-0.3-0.6-0.5
				C31.3,11.6,31.4,11.5,31.6,11.5z"/>
			<path class="st1" d="M30.4,13.5C30.4,13.6,30.4,13.6,30.4,13.5c-0.1,0-0.1,0-0.2,0c-0.2-0.2-0.3-0.3-0.3-0.6
				c0-0.1-0.1-0.3-0.1-0.5c0-0.1,0.1-0.3,0.1-0.4c0.2,0.1,0.3,0.3,0.4,0.5C30.2,12.9,30.3,13.2,30.4,13.5z"/>
			<path class="st1" d="M29.6,7.1c-0.4,0-0.7,0.1-1,0.3c0,0,0,0,0,0c0-0.1,0-0.1,0-0.2c0.1-0.2,0.3-0.3,0.5-0.4
				c0.3-0.1,0.6-0.2,0.9-0.2C29.9,6.7,29.7,6.9,29.6,7.1z"/>
			<path class="st1" d="M29.5,12.8C29.5,12.8,29.5,12.8,29.5,12.8c-0.1,0-0.1,0-0.2-0.1c-0.1-0.2-0.2-0.4-0.2-0.6c0,0,0-0.1,0-0.1
				c0-0.3,0.1-0.5,0.2-0.7c0.2,0.2,0.3,0.4,0.3,0.6C29.5,12.1,29.5,12.5,29.5,12.8z"/>
			<path class="st1" d="M28.6,11.1c0-0.3,0.2-0.6,0.4-0.8c0.1,0.2,0.2,0.4,0.2,0.6c-0.2,0.3-0.3,0.6-0.3,0.9c0,0,0,0,0,0
				c0-0.1-0.1-0.1-0.2-0.2c0-0.1-0.1-0.3-0.1-0.5C28.6,11.2,28.6,11.1,28.6,11.1z"/>
			<path class="st1" d="M28.4,10.8C28.4,10.8,28.3,10.8,28.4,10.8c-0.1,0-0.1-0.1-0.2-0.2c0,0,0-0.1,0-0.1c0-0.2,0-0.4,0.1-0.6
				c0.1-0.3,0.3-0.5,0.6-0.7c0,0.1,0.1,0.2,0.1,0.3c0,0.1,0,0.2,0,0.3C28.7,10.2,28.5,10.5,28.4,10.8z"/>
			<path class="st1" d="M28.6,7.7c0.2-0.2,0.5-0.3,0.8-0.3c-0.1,0.2-0.2,0.4-0.3,0.6c-0.3,0.1-0.6,0.3-0.9,0.5c0,0,0,0,0,0
				c0-0.1,0-0.1,0-0.2C28.3,8,28.4,7.8,28.6,7.7z"/>
			<path class="st1" d="M28.3,8.8c0.2-0.2,0.4-0.4,0.7-0.5c0,0.2-0.1,0.5-0.2,0.7c-0.3,0.2-0.6,0.4-0.7,0.7c0,0,0,0,0,0
				c0-0.1,0-0.1-0.1-0.2C28.1,9.2,28.2,9,28.3,8.8z"/>
			<path class="st1" d="M28.2,11.4c-0.1-0.1-0.3-0.1-0.4-0.1c-0.1-0.1-0.3-0.2-0.4-0.3c-0.2-0.2-0.3-0.5-0.4-0.9
				c0.3,0.1,0.6,0.2,0.8,0.5C28.1,10.8,28.2,11.1,28.2,11.4z"/>
			<path class="st1" d="M28.3,11.8L28.3,11.8c0.2,0.2,0.4,0.4,0.5,0.7c-0.2,0-0.3,0-0.5,0c-0.1,0-0.3-0.1-0.4-0.2
				c-0.3-0.2-0.4-0.5-0.5-0.8C27.8,11.5,28.1,11.6,28.3,11.8z"/>
			<path class="st1" d="M29,12.9L29,12.9c0.3,0.1,0.5,0.3,0.7,0.6c-0.2,0-0.3,0-0.5,0.1c-0.2,0-0.3,0-0.4-0.1
				c-0.3-0.1-0.5-0.3-0.7-0.6C28.4,12.7,28.7,12.7,29,12.9z"/>
			<path class="st1" d="M29.9,13.7L29.9,13.7c0.3,0,0.6,0.2,0.8,0.4c-0.3,0.1-0.6,0.2-0.9,0.2c-0.3,0-0.6-0.2-0.8-0.4
				C29.3,13.8,29.7,13.7,29.9,13.7z"/>
			<path class="st1" d="M30.8,13.6c-0.1-0.2-0.2-0.5-0.2-0.8c0,0,0-0.1,0-0.1c0.3,0.1,0.5,0.3,0.7,0.6v0c0.1,0.2,0.2,0.5,0.2,0.8
				c0,0,0,0,0,0.1C31.2,14.1,30.9,13.9,30.8,13.6z"/>
			<path class="st1" d="M30.2,5.1c0.1-0.1,0.1-0.2,0.1-0.3c0,0,0.1-0.1,0.1-0.1c0.3-0.2,0.6-0.3,0.9-0.3c-0.1,0.3-0.3,0.6-0.6,0.8
				c-0.2,0.2-0.5,0.3-0.8,0.3C30.1,5.3,30.2,5.2,30.2,5.1L30.2,5.1z"/>
			<path class="st1" d="M29.5,4.7c0.1-0.3,0.4-0.5,0.7-0.7c0,0.1,0,0.2,0,0.2c0,0.2-0.1,0.5-0.2,0.7c-0.1,0.3-0.3,0.5-0.6,0.6
				c0-0.2,0-0.3,0-0.5C29.4,5,29.4,4.9,29.5,4.7z"/>
			<path class="st1" d="M29.3,6.1c0.2-0.2,0.4-0.3,0.6-0.3c0.3-0.1,0.6,0,0.9,0.1c-0.2,0.2-0.3,0.3-0.5,0.4c-0.3-0.1-0.7,0-1,0.1
				c0,0,0,0,0,0C29.2,6.3,29.2,6.2,29.3,6.1z"/>
			<path class="st1" d="M28.5,5.7c0.1-0.3,0.3-0.6,0.5-0.8c0.1,0.2,0.1,0.4,0.1,0.6c0,0.1,0,0.2,0,0.3c-0.1,0.3-0.2,0.5-0.5,0.8
				c0-0.2-0.1-0.3-0.2-0.5c0,0,0-0.1,0-0.1C28.4,5.9,28.4,5.8,28.5,5.7z"/>
			<path class="st1" d="M27.8,6.9c0-0.3,0.1-0.6,0.3-0.9c0.2,0.3,0.3,0.6,0.3,0.9c0,0,0,0,0,0c0,0.3-0.1,0.6-0.3,0.8
				C28,7.6,28,7.5,27.8,7.4C27.8,7.2,27.8,7.1,27.8,6.9C27.8,6.9,27.8,6.9,27.8,6.9z"/>
			<path class="st1" d="M27.4,7.3c0.3,0.2,0.4,0.5,0.5,0.8c0,0.1,0,0.2,0,0.4c0,0.2,0,0.4-0.1,0.5c-0.1-0.1-0.2-0.3-0.3-0.3
				c-0.1-0.1-0.1-0.3-0.2-0.4c0-0.1,0-0.2,0-0.4C27.3,7.7,27.3,7.5,27.4,7.3z"/>
			<path class="st1" d="M27.1,8.7c0.3,0.2,0.5,0.4,0.7,0.7c0.1,0.2,0.2,0.5,0.2,0.7c0,0.1,0,0.1,0,0.2c-0.1-0.1-0.3-0.2-0.4-0.3
				c-0.1-0.1-0.2-0.2-0.3-0.4c-0.1-0.2-0.2-0.5-0.2-0.7C27.1,8.9,27.1,8.8,27.1,8.7z"/>
		</g>
		<path class="st0" d="M33.5,6.1c0-0.7-0.1-1.5-0.4-2.3v7.9h0.4V6.1z"/>
		<g>
			<path class="st1" d="M18.6,12.6c0.6,0.2,1.3,0.3,2,0.3c0-0.3,0-7,0-8.2c0-0.1,0-0.1,0-0.2c-0.7,0-1.4-0.1-2.1-0.3
				c-0.6-0.1-1.1-0.3-1.6-0.3l0,0c-0.7,0-1.1,0.2-1.3,0.4v0.3v8c0.4-0.2,0.8-0.3,1.3-0.4C17.4,12.3,18,12.4,18.6,12.6z"/>
			<path class="st1" d="M13.9,12.3c0.5,0,0.9,0.1,1.3,0.4v-8V4.4C14.9,4.2,14.6,4,13.9,4c-0.5,0-1,0.1-1.6,0.3
				c-0.7,0.2-1.3,0.3-2.1,0.3c0,0,0,0.1,0,0.2c0,1.2,0,7.8,0,8.2c0.7,0,1.3-0.1,2-0.3C12.8,12.4,13.3,12.3,13.9,12.3z"/>
			<path class="st1" d="M21.6,4.7h-0.5l0,0.2c0,0,0,0,0,0.1v8.6c-0.4,0-5.1,0-5.3,0c-0.1,0.2-0.2,0.2-0.5,0.2c-0.2,0-0.3,0-0.4-0.2
				c-0.2,0-4.5,0-5.3,0V4.9c0,0,0,0,0-0.1l0-0.2H8.9v9.5c0,0,5.6,0,5.7,0c0.1,0.2,0.4,0.4,0.7,0.4c0.4,0,0.6-0.2,0.7-0.4
				c0.2,0,5.7,0,5.7,0V4.7H21.6z"/>
		</g>
		<g>
			<path class="st0" d="M16.9,6c-0.3,0-0.6,0.1-0.8,0.1v0.4c0.2-0.1,0.5-0.1,0.8-0.2c0.5,0,1,0.1,1.6,0.3c0.5,0.1,1,0.3,1.6,0.3V6.5
				c-0.5,0-1-0.2-1.4-0.3C18,6.1,17.4,5.9,16.9,6z"/>
			<path class="st0" d="M16.9,10.8c-0.3,0-0.6,0.1-0.8,0.1v0.4c0.2-0.1,0.5-0.1,0.8-0.1c0.5,0,1,0.1,1.6,0.3c0.5,0.1,1,0.3,1.6,0.3
				v-0.4c-0.5,0-1-0.2-1.5-0.3C18,10.9,17.4,10.8,16.9,10.8z"/>
			<path class="st0" d="M16.9,9.8c-0.3,0-0.6,0.1-0.8,0.1v0.4c0.2-0.1,0.5-0.1,0.8-0.2c0.5,0,1,0.1,1.6,0.3c0.5,0.1,1,0.3,1.5,0.3
				v-0.4c-0.5,0-1-0.2-1.4-0.3C18,10,17.4,9.8,16.9,9.8z"/>
			<path class="st0" d="M16.9,6.9c-0.3,0-0.6,0.1-0.8,0.1v0.4c0.2-0.1,0.5-0.1,0.8-0.2c0.5,0,1,0.1,1.6,0.3c0.5,0.1,1,0.3,1.6,0.3
				V7.5c-0.5,0-1-0.2-1.5-0.3C18,7.1,17.4,6.9,16.9,6.9z"/>
			<path class="st0" d="M16.9,8.9c-0.3,0-0.6,0-0.8,0.1v0.4c0.2-0.1,0.5-0.1,0.8-0.1c0.5,0,1,0.1,1.6,0.3c0.5,0.1,1,0.3,1.6,0.3V9.4
				c-0.5,0-1-0.2-1.5-0.3C18,9,17.4,8.8,16.9,8.9z"/>
			<path class="st0" d="M18.6,5.3C18,5.1,17.4,5,16.9,5c-0.3,0-0.6,0-0.8,0.1v0.4c0.2-0.1,0.5-0.1,0.8-0.2c0.5,0,1,0.1,1.6,0.3
				c0.5,0.1,1,0.3,1.6,0.3V5.6C19.6,5.5,19.1,5.4,18.6,5.3z"/>
			<path class="st0" d="M12.2,10.1c-0.5,0.1-1,0.2-1.5,0.3v0.4c0.5,0,1-0.2,1.6-0.3c0.6-0.1,1.1-0.3,1.6-0.3c0.3,0,0.6,0.1,0.8,0.2
				V10c-0.2-0.1-0.5-0.1-0.8-0.1C13.3,9.8,12.8,10,12.2,10.1z"/>
			<path class="st0" d="M12.2,9.1c-0.5,0.1-1,0.2-1.5,0.3v0.4c0.5,0,1-0.2,1.6-0.3c0.6-0.1,1.1-0.3,1.6-0.3c0.3,0,0.6,0.1,0.8,0.1V9
				c-0.2-0.1-0.5-0.1-0.8-0.1C13.3,8.8,12.8,9,12.2,9.1z"/>
			<path class="st0" d="M16.9,7.9c-0.3,0-0.6,0.1-0.8,0.1v0.4c0.2-0.1,0.5-0.1,0.8-0.1c0.5,0,1,0.1,1.6,0.3c0.5,0.1,1,0.2,1.5,0.3
				V8.5c-0.5,0-1-0.2-1.4-0.3C18,8,17.4,7.9,16.9,7.9z"/>
			<path class="st0" d="M12.2,11.1c-0.5,0.1-1,0.2-1.5,0.3v0.4c0.5,0,1-0.2,1.6-0.3c0.6-0.1,1.1-0.3,1.6-0.3c0.3,0,0.6,0.1,0.8,0.1
				v-0.4c-0.2-0.1-0.5-0.1-0.8-0.1C13.3,10.8,12.8,10.9,12.2,11.1z"/>
			<path class="st0" d="M12.2,5.3c-0.5,0.1-1,0.3-1.5,0.3V6c0.5,0,1-0.2,1.6-0.3c0.6-0.1,1.1-0.3,1.6-0.3c0.3,0,0.6,0.1,0.8,0.2V5.1
				C14.5,5,14.2,5,13.9,5C13.3,5,12.8,5.1,12.2,5.3z"/>
			<path class="st0" d="M12.2,6.2c-0.5,0.1-1,0.3-1.5,0.3v0.4c0.5,0,1-0.2,1.6-0.3c0.6-0.1,1.1-0.3,1.6-0.3c0.3,0,0.6,0.1,0.8,0.2
				V6.1C14.5,6,14.2,6,13.9,6C13.3,5.9,12.8,6.1,12.2,6.2z"/>
			<path class="st0" d="M12.2,8.2c-0.5,0.1-1,0.3-1.5,0.3v0.4c0.5,0,1-0.2,1.6-0.3c0.6-0.1,1.1-0.3,1.6-0.3c0.3,0,0.6,0.1,0.8,0.1V8
				c-0.2-0.1-0.5-0.1-0.8-0.1C13.3,7.9,12.8,8,12.2,8.2z"/>
			<path class="st0" d="M12.2,7.2c-0.5,0.1-1,0.2-1.5,0.3v0.4c0.5,0,1-0.2,1.6-0.3c0.6-0.2,1.1-0.3,1.6-0.3c0.3,0,0.6,0.1,0.8,0.1
				V7.1c-0.2-0.1-0.5-0.1-0.8-0.1C13.3,6.9,12.8,7.1,12.2,7.2z"/>
		</g>
		<polygon class="st1" points="19.6,34.2 19.6,35.4 18.6,34.6 17.6,35.4 17.6,34.2 16.4,33.9 17.4,33.1 16.8,32 18,32.2 18.6,31.1 
			19.1,32.2 20.4,32 19.8,33.1 20.8,33.9 		"/>
		<polygon class="st1" points="26.3,42.8 25.1,42.3 24.5,43.5 24,42.3 22.8,42.8 23.2,41.6 22.1,41 23.2,40.5 22.8,39.2 24,39.7 
			24.5,38.5 25.1,39.7 26.3,39.2 25.9,40.5 27,41 25.9,41.6 		"/>
		<polygon class="st1" points="22.7,26.4 24,26.6 24.5,25.5 25.1,26.6 26.3,26.4 25.8,27.5 26.7,28.3 25.5,28.6 25.5,29.8 24.5,29 
			23.5,29.8 23.5,28.6 22.3,28.3 23.3,27.5 		"/>
		<polygon class="st1" points="27.6,36.3 26.7,35.8 25.7,36.3 25.9,35.3 25.1,34.5 26.2,34.3 26.7,33.4 27.1,34.3 28.2,34.5 
			27.4,35.3 		"/>
		<polygon class="st1" points="31.5,32.4 30.4,32.4 29.9,33.4 29.3,32.4 28.3,32.4 28.8,31.5 28.3,30.6 29.3,30.6 29.9,29.7 
			30.4,30.6 31.5,30.6 30.9,31.5 		"/>
		<path class="st1" d="M24.5,21L38,33.1c0.9-1.7,1.5-3.4,2-4.9l-15.6-14L9,28.2c0.5,1.6,1.1,3.2,2,4.9L24.5,21z"/>
		<path class="st1" d="M45.5,37.2l0.7-4.5l-2.1-1.9c0.2-0.6,0.4-1.2,0.6-1.8c0.6,0.6,2.7,2.5,3,2.7C47.2,33.7,46.3,35.6,45.5,37.2z"
			/>
		<path class="st1" d="M44.5,38.7c-0.2-0.2-0.5-0.4-0.8-0.7c0,0,0,0,0,0c0.5-0.8,0.9-1.6,1.3-2.5L44.5,38.7z"/>
		<path class="st1" d="M1.2,31.8c0.3-0.3,2.4-2.2,3-2.7c0.2,0.6,0.4,1.2,0.6,1.8l-2.1,1.9l0.7,4.5C2.7,35.6,1.9,33.7,1.2,31.8z"/>
		<path class="st1" d="M4.5,38.7L4,35.5c0.4,0.9,0.9,1.7,1.3,2.5C5,38.3,4.7,38.6,4.5,38.7z"/>
		<path class="st1" d="M42.4,38.6c-3.9,6.2-9.4,10.7-15.8,13.1c0,0-1.9,0.7-2.1,0.8c-0.2-0.1-2.1-0.8-2.1-0.8
			c-6.5-2.4-12-6.9-15.8-13.1c-1.1-1.8-2.1-3.7-2.8-5.7c0.3-0.3,2.4-2.1,3-2.7c0.8,2.3,1.8,4.4,3,6.4c3.4,5.5,8.3,9.5,14,11.6
			c0,0,0.8,0.3,0.8,0.3l0.8-0.3c5.7-2.1,10.5-6.1,14-11.6c1.2-2,2.2-4.1,3-6.4c0.6,0.5,2.6,2.4,3,2.7C44.5,34.9,43.5,36.8,42.4,38.6
			z"/>
		<path class="st0" d="M7.8,36.6l0.6-0.7l-0.1-0.2c-0.1-0.1-0.2-0.2-0.3-0.4c-0.6,0.1-1.6,0.3-2.1,0.3l-0.1-0.1l-0.1,0.1
			c0.1,0.1,0.1,0.2,0.2,0.3C6,36,6,36.1,6.1,36.2l0.1-0.1L6.1,36l0.7-0.2l0.4,0.6C7,36.6,6.8,36.8,6.7,37l-0.1-0.2l-0.1,0.1
			c0.1,0.2,0.2,0.3,0.3,0.5c0.1,0.1,0.2,0.3,0.2,0.5l0.1-0.1L7,37.5C7.1,37.4,7.5,36.9,7.8,36.6z M7.1,35.8l0.8-0.2l0,0l-0.6,0.6
			L7.1,35.8z"/>
		<path class="st0" d="M10.8,39.8l0.1-0.1c-0.1-0.1-0.2-0.2-0.2-0.3c-0.1-0.1-0.2-0.2-0.2-0.3l-0.1,0.1l0.1,0.2
			c-0.3,0.3-1.1,0.9-1.1,0.9l0,0c0.2-0.6,0.4-1.2,0.6-1.8c-0.1-0.1-0.1-0.2-0.2-0.3c-0.1-0.1-0.1-0.2-0.2-0.3l-0.1,0.1L9.6,38
			c-0.1,0.1-0.3,0.2-0.5,0.4l-0.5,0.4C8.3,38.9,8.2,39,8,39.1L7.9,39l-0.1,0.1c0.1,0.1,0.2,0.2,0.2,0.3c0.1,0.1,0.1,0.2,0.2,0.3
			l0.1-0.1l-0.1-0.2c0.3-0.3,0.8-0.6,1.1-0.9l0,0c-0.2,0.6-0.4,1.2-0.7,1.8c0.1,0.1,0.1,0.1,0.2,0.2C8.9,40.7,9,40.8,9,40.8
			c0.2-0.1,0.4-0.3,0.7-0.5l0.5-0.4c0.2-0.1,0.4-0.2,0.5-0.3L10.8,39.8z"/>
		<path class="st0" d="M11,41.5c-0.5,0.5-0.5,1.2-0.1,1.6c0.3,0.3,0.6,0.5,1.1,0.5l0-0.3c-0.3,0-0.5-0.2-0.6-0.3
			c-0.3-0.3-0.3-0.8,0-1.2c0.4-0.4,0.8-0.2,1.1,0c0.1,0.1,0.2,0.3,0.3,0.5l-0.1,0.1l0.1,0.1c0.1-0.1,0.3-0.2,0.5-0.3
			c-0.1-0.3-0.2-0.5-0.4-0.7C12.3,41.1,11.5,41,11,41.5z"/>
		<path class="st0" d="M15.3,44.1c-0.6-0.5-1.3-0.4-1.7,0.1c-0.5,0.6-0.4,1.2,0.3,1.7c0.6,0.5,1.3,0.4,1.7-0.1
			C16.1,45.3,16,44.6,15.3,44.1z M15.1,45.5c-0.3,0.4-0.8,0.5-1.1,0.2c-0.3-0.3-0.3-0.7,0-1.1c0.3-0.4,0.8-0.5,1.1-0.2
			C15.5,44.6,15.4,45.1,15.1,45.5z"/>
		<path class="st0" d="M18.6,46.5c-0.1-0.1-0.3-0.2-0.4-0.2c-0.1-0.1-0.3-0.2-0.4-0.2c-0.1-0.1-0.2-0.1-0.3-0.2l-0.1,0.1l0.2,0.1
			c-0.1,0.2-0.2,0.3-0.3,0.5l-0.3,0.6c-0.1,0.2-0.2,0.3-0.4,0.5l-0.2-0.1l-0.1,0.1c0.2,0.1,0.3,0.2,0.5,0.3c0.1,0.1,0.3,0.2,0.4,0.3
			l0.1-0.1L17,48c0.1-0.2,0.2-0.3,0.3-0.5l0.1-0.2l0.1,0.1c0,0.3,0.1,0.9,0.1,1.3c0.2,0.1,0.4,0.2,0.6,0.3l0.1-0.1l-0.1-0.1
			c0-0.2-0.1-1-0.2-1.2c0.3,0.1,0.6,0.1,0.8-0.2C19.1,47.1,19.1,46.8,18.6,46.5z M18.4,47.1c-0.1,0.2-0.4,0.2-0.6,0
			c-0.1,0-0.1-0.1-0.2-0.1l0.1-0.2c0.1-0.2,0.2-0.3,0.3-0.4c0.1,0,0.1,0.1,0.3,0.1C18.5,46.8,18.5,46.9,18.4,47.1z"/>
		<path class="st0" d="M21.9,48.2l-0.2-0.1c-0.2,0-0.3,0-0.5-0.1c-0.5,0.5-1.1,1.2-1.5,1.5l-0.2,0l-0.1,0.1c0.1,0,0.2,0.1,0.3,0.1
			c0.1,0.1,0.3,0.1,0.4,0.2l0.1-0.1l-0.2-0.1l0.4-0.5l0.6,0.3c0,0.2-0.1,0.5-0.1,0.7l-0.2,0l-0.1,0.1c0.2,0.1,0.3,0.1,0.5,0.2
			c0.1,0.1,0.3,0.1,0.5,0.2l0.1-0.1l-0.2-0.1c0-0.2,0-0.8,0.1-1.3L21.9,48.2z M21.2,49.2L20.7,49l0.6-0.6l0,0L21.2,49.2z"/>
		<path class="st0" d="M28.3,50c-0.1-0.2-0.2-0.3-0.3-0.6l-0.3-0.6c-0.1-0.2-0.2-0.4-0.2-0.6l0.2-0.1L27.7,48
			c-0.2,0.1-0.3,0.2-0.5,0.2c-0.2,0.1-0.3,0.1-0.5,0.2l0.1,0.1l0.2,0c0.1,0.2,0.2,0.3,0.3,0.6l0.3,0.6c0.1,0.2,0.2,0.4,0.2,0.6
			l-0.2,0.1l0.1,0.1c0.2-0.1,0.3-0.1,0.5-0.2c0.1-0.1,0.3-0.1,0.5-0.2l-0.1-0.1L28.3,50z"/>
		<path class="st0" d="M32.3,47.8c-0.1-0.2-0.2-0.3-0.3-0.5l-0.3-0.6c-0.1-0.2-0.2-0.4-0.3-0.5l0.2-0.1l-0.1-0.1
			c-0.1,0.1-0.3,0.2-0.4,0.2c-0.1,0.1-0.3,0.2-0.4,0.2c0.1,0.3,0.3,1.4,0.3,1.6c-0.3-0.2-1.1-0.9-1.3-1.1c-0.1,0.1-0.3,0.2-0.4,0.2
			c-0.1,0.1-0.3,0.1-0.4,0.2l0.1,0.1l0.2-0.1l0.2,0.3c0.2,0.3,0.6,1.1,0.8,1.4L30,49.2l0.1,0.1c0.1-0.1,0.2-0.1,0.3-0.2
			c0.1-0.1,0.2-0.1,0.4-0.2l-0.1-0.1l-0.2,0.1c-0.1-0.2-0.2-0.3-0.3-0.5l-0.2-0.3c-0.2-0.3-0.3-0.5-0.3-0.6l0,0
			c0.8,0.7,1.3,1,1.5,1.2l0.3-0.2L31,46.7l0,0c0.1,0.1,0.2,0.3,0.3,0.6l0.2,0.3c0.1,0.2,0.2,0.4,0.3,0.5l-0.1,0.1l0.1,0.1
			c0.1-0.1,0.3-0.2,0.4-0.3c0.2-0.1,0.3-0.2,0.5-0.3l-0.1-0.1L32.3,47.8z"/>
		<path class="st0" d="M34.5,46.2c-0.1-0.1-0.3-0.3-0.4-0.5l-0.3-0.4c-0.1-0.1-0.3-0.4-0.4-0.5c0-0.1,0.1-0.1,0.2-0.2
			c0.2-0.2,0.4-0.2,0.6,0c0.2,0.2,0.2,0.4,0,0.6c0,0-0.1,0.1-0.1,0.1l0.1,0.3c0.1-0.1,0.2-0.1,0.3-0.2c0.5-0.4,0.5-0.9,0.2-1.2
			c-0.3-0.3-0.6-0.3-1,0c-0.1,0.1-0.2,0.2-0.3,0.3c-0.1,0.1-0.3,0.2-0.4,0.3c-0.1,0.1-0.2,0.2-0.4,0.3l0.1,0.1l0.2-0.1
			c0.1,0.1,0.3,0.3,0.4,0.5l0.4,0.5c0.2,0.2,0.3,0.3,0.4,0.5l-0.1,0.2l0.1,0.1c0.1-0.1,0.3-0.2,0.4-0.3c0.1-0.1,0.3-0.2,0.5-0.4
			L34.8,46L34.5,46.2z"/>
		<path class="st0" d="M38.1,42.8c-0.2-0.1-0.8-0.3-1.2-0.5l-0.8-0.4L35.9,42c-0.1,0.1-0.2,0.3-0.2,0.4c0.3,0.6,0.7,1.5,0.9,1.9
			l-0.1,0.2l0.1,0.1c0.1-0.1,0.2-0.2,0.2-0.3c0.1-0.1,0.2-0.2,0.3-0.3L37,44l-0.2,0.1l-0.3-0.6L37,43c0.2,0.1,0.4,0.2,0.6,0.3
			l-0.1,0.2l0.1,0.1c0.1-0.1,0.2-0.3,0.4-0.4c0.1-0.1,0.2-0.2,0.4-0.4l-0.1-0.1L38.1,42.8z M36.4,43.3L36,42.5l0,0l0.8,0.4
			L36.4,43.3z"/>
		<path class="st0" d="M40.6,39.7c-0.2,0-1,0.1-1.2,0.1c0.2-0.3,0.1-0.6-0.1-0.8c-0.2-0.2-0.5-0.2-0.9,0.3c-0.1,0.1-0.2,0.3-0.3,0.4
			c-0.1,0.1-0.2,0.3-0.3,0.4c-0.1,0.1-0.2,0.2-0.3,0.3l0.1,0.1l0.2-0.1c0.2,0.1,0.3,0.2,0.5,0.4l0.5,0.4c0.2,0.1,0.3,0.3,0.5,0.4
			l-0.1,0.2l0.1,0.1c0.1-0.1,0.2-0.3,0.3-0.4c0.1-0.1,0.2-0.3,0.3-0.4l-0.1-0.1l-0.1,0.1c-0.2-0.1-0.3-0.2-0.5-0.3L39,40.4l0.1-0.1
			c0.3,0,0.9,0,1.3,0c0.1-0.2,0.2-0.4,0.4-0.6L40.6,39.7L40.6,39.7z M38.9,40.1c0,0.1-0.1,0.1-0.1,0.1l-0.1-0.1
			c-0.1-0.1-0.3-0.2-0.4-0.3c0-0.1,0.1-0.1,0.2-0.3c0.2-0.2,0.3-0.3,0.5-0.1C39.1,39.6,39.1,39.9,38.9,40.1z"/>
		<path class="st0" d="M42,35.8c-0.7-0.4-1.3-0.2-1.7,0.5c-0.4,0.7-0.2,1.4,0.4,1.7c0.6,0.4,1.3,0.2,1.7-0.5
			C42.7,36.8,42.5,36.1,42,35.8z M42,37.3c-0.2,0.4-0.7,0.4-1.1,0.2c-0.4-0.2-0.6-0.7-0.4-1c0.2-0.4,0.7-0.4,1.1-0.2
			C42.1,36.5,42.2,36.9,42,37.3z"/>
		<path class="st0" d="M24.5,49.7c-0.3,0-0.5,0.2-0.5,0.5c0,0.3,0.2,0.5,0.5,0.5c0.3,0,0.5-0.2,0.5-0.5C25,49.9,24.8,49.7,24.5,49.7
			z"/>
		<path class="st0" d="M6.1,33.9c0.3,0,0.5-0.2,0.5-0.5c0-0.3-0.2-0.5-0.5-0.5c-0.3,0-0.5,0.2-0.5,0.5C5.6,33.7,5.8,33.9,6.1,33.9z"
			/>
		<path class="st0" d="M43,33.9c0.3,0,0.5-0.2,0.5-0.5c0-0.3-0.2-0.5-0.5-0.5c-0.3,0-0.5,0.2-0.5,0.5C42.5,33.7,42.8,33.9,43,33.9z"
			/>
	</g>
	<g>
		<path class="st0" d="M304.3,0.9v21c0,8.6-3.5,12.7-11.2,12.7c-8.8,0-10.7-6.9-10.7-12.7v-21h-2.6v21c0,9.9,4.5,14.9,13.2,14.9
			c9.1,0,13.7-5,13.7-14.9v-21H304.3z"/>
		<path class="st0" d="M323.5,10c-3.9,0-7.4,2.1-8.8,5.3c0-1.2,0-4.8,0-4.8h-2.3V36h2.3V22.3c0-6.2,3.4-10.2,8.8-10.2
			c6.9,0,6.9,6,6.9,7.9v16h2.3V20.4C332.6,17.5,332.6,10,323.5,10z"/>
		<polygon class="st0" points="338.3,10.6 338.3,36 340.6,36 340.6,10.6 340.3,10.6 		"/>
		<polygon class="st0" points="338.3,2.9 338.3,6.3 340.6,6.3 340.6,2.9 340.3,2.9 		"/>
		<path class="st0" d="M363.2,10.6c0,0-8.1,21.8-8.4,22.6c-0.3-0.8-8.9-22.6-8.9-22.6h-2.6L353.5,36h2.6l9.6-25.4h-0.3H363.2z"/>
		<path class="st0" d="M378.1,10c-3,0-5.5,1-7.5,3c-2.5,2.5-3.8,6.4-3.8,10.7c-0.1,4,1.2,7.5,3.5,9.8c2,2,4.7,3.1,7.8,3.1
			c6.1,0,10-3.3,11-9.2l0-0.3h-2.3l0,0.2c-0.9,4.5-4.1,7.3-8.7,7.3c-2.4,0-4.4-0.8-6-2.4c-1.9-1.9-3-5-3-8.3c0,0,0,0,0-0.1
			c0.4,0,20.2,0,20.2,0l0-0.2c0-0.3,0-0.6,0-1c0-3.9-1.2-7.2-3.3-9.5C384,11.1,381.4,10,378.1,10z M378.1,12.1
			c5.7,0,8.7,4.8,8.9,9.7c-0.5,0-17.4,0-17.8,0C369.6,16.9,372.8,12.1,378.1,12.1z"/>
		<path class="st0" d="M395.7,15.7c0-1.1,0-5,0-5h-2.3V36h2.3V22.2c0.2-3.8,1-5.2,2.8-7c2.7-2.6,5.8-2.5,6.7-2.4l0.2,0v-2.3l-0.2,0
			C401,10.3,397,12.5,395.7,15.7z"/>
		<path class="st0" d="M417.4,22c0,0-0.8-0.2-0.8-0.2c-3.8-0.8-7.4-1.6-7.4-5.1c0-3.4,3.6-4.6,7-4.6c2.7,0,7.1,0.8,7.2,6.2l0,0.2
			h2.3v-0.2c0-5.3-3.4-8.2-9.4-8.2c-2.2,0-9.3,0.5-9.3,6.6c0,5.5,5.1,6.6,8.8,7.3l0.7,0.1c4,0.8,7.7,1.6,7.7,5.4
			c0,4.6-5.4,5.1-7.7,5.1c-4.6,0-7.8-2.8-8-7.1l0-0.2h-2.3l0,0.2c0.1,5.6,4.1,9.1,10.3,9.1c2.3,0,10-0.5,10-7.1
			C426.4,24.1,422.3,22.9,417.4,22z"/>
		<polygon class="st0" points="431.1,10.6 431.1,36 433.4,36 433.4,10.6 433.2,10.6 		"/>
		<path class="st0" d="M468.9,10.6c0,0-8,21.4-8.4,22.4c-0.4-1-9.1-22.4-9.1-22.4s-7.7,0-8.1,0c0-0.4,0-7.8,0-7.8H443h-2.1
			c0,0,0,7.4,0,7.8c-0.4,0-4.6,0-4.6,0v2c0,0,4.2,0,4.6,0c0,0.4,0,17.2,0,17.2c0,0.1,0,0.3,0,0.4c0,2,0.5,3.4,1.5,4.3
			c1.5,1.5,4,1.5,6,1.4l0.2,0v-2l-0.2,0c-2.1,0.1-3.4-0.1-4.2-0.9c-0.6-0.6-0.9-1.7-0.9-3.3c0,0,0-16.8,0-17.2c0.4,0,6.1,0,6.3,0
			c0.1,0.3,9.6,22.9,9.7,23c-1.1,3.2-1.8,5-2.5,5.7c-1.2,1.2-2.4,1.5-5,1.5h-0.2v2h0.2c2.8,0,4.6-0.1,6-1.2c1.1-0.8,1.9-2.6,3-5.2
			c0,0,10.8-27.9,10.8-27.9H468.9z"/>
		<polygon class="st0" points="431.1,2.9 431.1,6.3 433.4,6.3 433.4,2.9 433.2,2.9 		"/>
	</g>
	<g>
		<path class="st0" d="M120.4,36.5c-10-0.2-18.4-7.9-18.2-18.5c0.3-8.4,7-17.9,19.2-17.5c8.5,0.2,18.1,6.6,17.8,18.3
			C139,30.6,129,36.8,120.4,36.5z M120.8,2.6c-7.6,0-13,5.6-13,15.1c0,11.3,6.7,16.4,13.1,16.4c7.6,0,12.7-5.9,12.7-15.2
			C133.7,9,128.5,2.6,120.8,2.6z"/>
		<path class="st0" d="M267.7,1.4V0.9h-10v0.5c2,0.1,2.5,0.5,2.5,3.3V17h-18V4.8c0-2.8,0.5-3.2,2.5-3.3V0.9h-10v0.5
			c2,0.1,2.5,0.5,2.5,3.3v27.5c0,2.8-0.5,3.2-2.5,3.3V36h10v-0.5c-2-0.1-2.5-0.5-2.5-3.3V19.1h18v13.1c0,2.8-0.5,3.2-2.5,3.3V36h10
			v-0.5c-2-0.1-2.5-0.5-2.5-3.3V4.8C265.1,1.9,265.7,1.6,267.7,1.4z"/>
		<path class="st0" d="M141.9,0.9v0.5c1.9,0.1,2.5,0.3,2.5,2.3v28.4c0,2.8-0.5,3.2-2.5,3.3V36h7.6v-0.5c-2-0.1-2.5-0.5-2.5-3.3V6.7
			c0,0.5,19.6,24.3,23.8,29.4h0.8V3.8c0-2,0.5-2.2,2.5-2.3V0.9h-7.4v0.5c1.9,0.1,2.5,0.3,2.5,2.3v22.3L148.6,0.9H141.9z"/>
		<path class="st0" d="M191.2,0.9h-0.7c-1.8,4.2-10,23.7-12.9,30.4c-0.5,1.2-1.3,3-1.9,3.7c-0.5,0.5-0.9,0.5-1.3,0.6V36h6.7v-0.5
			c-0.5,0-1.7,0-1.8-1c0-0.3,0.1-0.7,0.2-1c0.2-0.6,1.6-4,3.3-7.9h13.4c1.3,3.3,2.5,6.1,3.1,7.3l0,0c0.2,0.4,0.5,1.2,0.5,1.6
			c0,1-0.9,1-1.8,1V36h9.3v-0.5c-1.1-0.1-1.5-0.4-2.3-2.3L191.2,0.9z M183.6,23.4c2.3-5.6,5.8-14.5,5.8-14.5s3.1,8,5.8,14.5H183.6z"
			/>
		<path class="st0" d="M61.3,0.9v0.5C62.4,1.5,63,1.6,63.4,2c0.1,0.2,0.2,0.3,0.3,0.5c0,0,0,0,0,0c0.1,0.2,0.1,0.4,0.1,0.6
			c0,0.2,0,0.4,0,0.7v28.4c0,2.8-0.5,3.2-2.5,3.3V36h7.5v-0.5c-2-0.1-2.5-0.5-2.5-3.3V7.8c0-0.5-0.1-1.3-0.1-1.3l0.5,1.3l12.1,28.1
			h0.7L91.9,7l0.4-1.2c0,0-0.1,0.6-0.1,1.1v25.3c0,2.8-0.5,3.2-2.5,3.3V36h10v-0.5c-2-0.1-2.5-0.5-2.5-3.3V3.8c0-2,0.5-2.2,2.5-2.3
			V0.9h-7.8L80.5,27.4L69.2,0.9H61.3z"/>
		<path class="st0" d="M209,33.7c2.4,1.4,5.9,2.9,9.6,2.9c0.1,0,0.1,0,0.2,0c5.5-0.1,11.3-4.1,11.3-10.5c0-6.9-4.9-8.5-9.8-11.1
			c-5-2.4-7-3.7-7-6.9c0-2.2,1.3-5.5,5.7-5.5c1.4,0,2.6,0.4,3.7,0.9c3.6,2,3.7,4.8,4.2,6.5h0.5L227,2.2c-2.3-0.9-4.1-1.4-5.3-1.6
			c-0.8-0.1-1.5-0.1-2.1-0.1c-4.9,0-10.7,2.9-10.7,9.1c0,4.2,2.5,6.9,7.5,9.3c5,2.5,8.7,3.5,8.7,8.5c0,2.5-1.4,6.9-7,6.9
			c-2.2,0-4-0.8-5.4-1.9c-3.3-3.1-3.2-5.6-3.5-6.5h-0.5L209,33.7"/>
	</g>
</g>
<rect x="-32" y="-26.9" class="st2" width="535.3" height="105.9"/>
</svg>
